<?xml version="1.0" encoding="UTF-8"?>
<svg id="Layer_1" data-name="Layer 1" xmlns="http://www.w3.org/2000/svg" viewBox="0 0 233.2 58.89">
  <defs>
    <style>
      .cls-1 {
        fill: #24c870;
      }

      .cls-2 {
        fill: #ffdf00;
      }

      .cls-3 {
        fill: #31cb79;
      }

      .cls-4 {
        fill: #2fcb78;
      }

      .cls-5 {
        fill: #405080;
      }
    </style>
  </defs>
  <g>
    <path class="cls-2" d="M185.46,34.04v4.39s7.05,0,7.05,0c.25,0,.36.23.37.43l.04,3.38c0,.44-.31.51-.67.51h-11.4c-.34,0-.69-.07-.69-.52l.02-20.78h12.46s.01,4.3.01,4.3l-7.19.03v4.05s6.21.05,6.21.05v4.09s-6.19.07-6.19.07Z"/>
    <path class="cls-2" d="M174.04,21.48l4.58-.05c.18,0,.34.06.42.16.11.14.07.28.01.53l-4.63,20.62-6.01.02c-.39,0-.65-.2-.72-.6l-4.47-20.11c-.05-.22-.04-.33.05-.45.07-.1.24-.16.42-.16l4.78.06,2.65,14.93,1.07-5.56.97-5.33.6-3.44c.02-.13.1-.58.29-.6Z"/>
    <path class="cls-2" d="M155.46,21.45c.26,0,.28.44.24.62l-1.57,6.99-2.2,9.98-.87,3.69-6,.02c-.49,0-.63-.25-.73-.71l-4.45-20.07c-.04-.18.06-.37.11-.43s.2-.1.35-.1h4.44c.21,0,.37.18.41.38l1.53,8.68,1.14,6.03,1.2-6.9,1.2-6.55c.1-.56.09-1.09.38-1.63h4.82Z"/>
    <rect class="cls-2" x="156.75" y="21.43" width="5.36" height="21.34"/>
    <path class="cls-2" d="M225.68,42.73h-4.9s-.79-1.62-.79-1.62l-4.23-10.18v11.32c-.01.34-.27.51-.56.51h-3.67c-.29,0-.55-.17-.55-.53v-20.27c.02-.36.24-.53.56-.53l4.94.03,3.35,8.3,1.34,3.47c.12-.55-.02-1.01-.02-1.52l-.02-6.63c-.09-1.21-.1-2.36.07-3.61h4.72s.01,20.75.01,20.75c0,.12-.06.5-.25.5Z"/>
    <g>
      <path class="cls-2" d="M232.57,35.41c-.01.26-.12.57-.34.57l-3.65-.05c-.32-4.84-.57-9.53-.57-14.44l5.1-.02c.17,1.02.08,1.95.03,2.98l-.56,10.97Z"/>
      <rect class="cls-2" x="228" y="37.69" width="5.13" height="5.08"/>
    </g>
    <path class="cls-2" d="M209.15,21.8l-.05,15.35c0,2.47-1.3,4.63-3.63,5.46-2.9,1.03-7.06.86-9.28-1.26-1.27-1.21-1.7-2.84-1.7-4.61l-.03-14.78c0-.18.17-.5.34-.5l4.89.03.04,15.11c0,1.32.84,2.22,2.12,2.23,1.13,0,2.03-.8,2.03-2.03l.04-15.3,4.85-.06c.12,0,.39.13.39.37Z"/>
    <g>
      <path class="cls-2" d="M134.53,42.73c-.24,0-.38-.49-.43-.65l-2.21-7.26-1.99-.05v7.49c0,.25-.2.5-.45.5h-4.43c-.23,0-.38-.29-.38-.53v-20.24c0-.31.23-.54.52-.54l8.72.04c2.22.01,4.52,1.36,5.13,3.64.74,2.79.5,7.18-2.23,8.46l2.87,8.58c.04.13.03.58-.13.58h-4.99ZM133.92,29.08c.14-1.02.17-1.95-.25-2.85-.22-.39-.66-.68-1.12-.69l-2.67-.07v5.26s2.19.01,2.19.01c1.02,0,1.71-.64,1.85-1.67Z"/>
      <path class="cls-2" d="M122.85,21.46l.02,14.94c-.11,2.54-.8,5.02-3.22,6.02-2.63,1.08-5.65,1.1-8.26-.04-1.6-.7-2.6-2.1-2.95-3.75l-.26-2.81v-14.32s5.23-.03,5.23-.03l.05,14.61c0,.76.09,1.52.56,2.09.67.81,2.08.89,2.85.17.5-.47.72-1.22.72-1.92l.05-14.96h5.19Z"/>
      <path class="cls-2" d="M106.44,34.61c.68,2.92.08,6.44-2.76,7.73-2.65,1.2-5.76,1.17-8.48.1-2.75-1.08-3.71-3.84-3.24-6.73l5.04-.37c.24,1.32-.19,2.8,1.19,3.58.76.44,1.87.39,2.56-.2.64-.55.69-1.47.54-2.27-.14-.74-.72-1.4-1.53-1.74l-4.16-1.72c-1.22-.51-2.33-1.35-2.93-2.58-.98-2-.91-4.41.05-6.4,1.51-3.11,6.86-3.64,10.29-2.38,2.07.77,3.22,2.6,3.29,4.77.02.58.16,1.11-.07,1.74l-4.56.41c-.69.06-.25-1.09-.59-2.35-.22-.82-.98-1.15-1.77-1.14-.64,0-1.12.09-1.55.51-.39.38-.54.87-.55,1.49-.01.84.33,1.58,1.12,1.91l2.39,1c2.32.97,5.06,1.81,5.73,4.65Z"/>
    </g>
  </g>
  <g>
    <path class="cls-1" d="M43.43,56.34c.13-.34.24-.71.33-1.08l-.06-10.21.36-.21,25.81-12.72.18,1.66v9.19c-.01.53-.3,1.02-.77,1.25l-8.23,4.04-2.75,1.38-13.67,6.77c-.49.24-.72.15-1.2-.08Z"/>
    <path class="cls-4" d="M44.05,44.83l.06,9.86c0,.72.09,1.39-.69,1.64l-24.37-12.03c-.59-.29-.94-.63-.86-1.31l-.11-5.7.12-5.22,25.85,12.75Z"/>
    <g>
      <path class="cls-3" d="M43.48,41.56L0,20.34l5.1-2.39L43.33.23c.61,0,.92.04,1.07.7l.03,39.79c0,.5-.31.78-.94.85Z"/>
      <path class="cls-1" d="M81.21,23.73l-.17.34-33.24-4.75-.61,1.59,30.05,4.24.17.38-32.71,16.01c-.57.28-.75.25-1.21.03-.05-.06-.16-.15-.09-.33.26.07.68-.12.68-.4l-.03-40.03c-.01-.2-.86-.4-.71-.57.59-.27.74-.34,1.45,0l43.39,20.07-6.95,3.43Z"/>
      <path class="cls-5" d="M81.21,23.73l-.11,15.4-1.15-3.12-1.16,3.13-.07-13.51-1.33-.11-31-4.37c.75-.67,1.05-1.3.97-2.26l33.85,4.84Z"/>
    </g>
    <g>
      <path class="cls-2" d="M79.94,58.89l-.87-3.6c-1.32-.27-2.54-.79-3.6-1.69l-1.7,1.17,1.11-1.8c-.91-1-1.4-2.19-1.62-3.53l-3.67-.96,3.66-.9c.21-1.32.69-2.53,1.6-3.56l-1.12-1.92,1.86,1.16c1.02-.79,2.12-1.25,3.37-1.48l1-3.63.96,3.62c1.32.22,2.44.73,3.45,1.57l1.72-1.17c-.24.78-.67,1.17-1.1,1.77.92,1.06,1.44,2.27,1.68,3.64l3.44.88-3.45,1c-.23,1.33-.72,2.52-1.61,3.47l1.11,1.86-1.72-1.15c-1.07.81-2.2,1.43-3.59,1.65l-.92,3.62ZM78.19,45.34l.47-2.49c-.97.16-1.68.51-2.37,1.13l1.9,1.36ZM83.5,43.9c-.8-.62-1.37-.93-2.25-1.1.06.9.2,1.62.5,2.45.71-.49,1.25-.77,1.75-1.35ZM79.93,51.1c.58.03,1.09.58,1.49.83l-.37,2.26c.89-.11,1.65-.46,2.42-1.09-.64-1.2-.85-2.49-1.17-3.85l2.2-1.77c.26-.21.69-.14,1.12-.16-.21-.97-.6-1.76-1.19-2.51l-1.43,1.69c-.43.23-1.14,0-1.61-.02l-1.47-3.54-1.45,3.53c-.42.06-1.19.31-1.58.04l-1.41-1.69c-.57.7-1.03,1.49-1.19,2.52.67-.11,1.09.04,1.52.43l1.72,1.55c-.21,1.31-.6,2.54-1.13,3.78.76.6,1.5.93,2.35,1.1l-.32-2.24c.43-.25.94-.88,1.49-.85ZM76.87,50.11l-2.58-.5c.15.95.53,1.71,1.18,2.51l1.4-2.01ZM84.43,52.11c.71-.87,1-1.58,1.17-2.49l-2.57.55,1.39,1.94Z"/>
      <path class="cls-2" d="M80.02,50.16l-2.15,1.25.46-2.36-1.85-1.7,2.42-.16,1.04-2.31,1.03,2.35,2.38.16c-.44.76-1.44.96-1.69,1.68l.37,2.36-2-1.27Z"/>
    </g>
  </g>
</svg>