<?xml version="1.0" encoding="UTF-8"?>
<svg id="Layer_1" data-name="Layer 1" xmlns="http://www.w3.org/2000/svg" viewBox="0 0 31.37 20.51">
  <defs>
    <style>
      .cls-1 {
        fill: #24c870;
      }

      .cls-2 {
        fill: #ffdf00;
      }

      .cls-3 {
        fill: #31cb79;
      }

      .cls-4 {
        fill: #2fcb78;
      }

      .cls-5 {
        fill: #405080;
      }
    </style>
  </defs>
  <path class="cls-1" d="M15.12,19.62c.04-.12.08-.25.12-.38l-.02-3.56.12-.07,8.99-4.43.06.58v3.2c0,.18-.1.36-.27.44l-2.87,1.41-.96.48-4.76,2.36c-.17.08-.25.05-.42-.03Z"/>
  <path class="cls-4" d="M15.34,15.61l.02,3.43c0,.25.03.48-.24.57l-8.49-4.19c-.2-.1-.33-.22-.3-.45l-.04-1.99.04-1.82,9,4.44Z"/>
  <g>
    <path class="cls-3" d="M15.14,14.47L0,7.08l1.77-.83L15.09.08c.21,0,.32.01.37.24v13.85c.01.17-.1.27-.32.29Z"/>
    <path class="cls-1" d="M28.28,8.26l-.06.12-11.57-1.66-.21.55,10.46,1.47.06.13-11.39,5.57c-.2.1-.26.09-.42.01-.02-.02-.05-.05-.03-.11.09.02.24-.04.24-.14V.28c-.01-.07-.31-.14-.26-.2.2-.09.26-.12.5,0l15.11,6.99-2.42,1.19Z"/>
    <path class="cls-5" d="M28.28,8.26l-.04,5.36-.4-1.09-.4,1.09-.02-4.7-.46-.04-10.79-1.52c.26-.23.37-.45.34-.79l11.79,1.69Z"/>
  </g>
  <g>
    <path class="cls-2" d="M27.83,20.51l-.3-1.25c-.46-.09-.89-.28-1.25-.59l-.59.41.39-.63c-.32-.35-.49-.76-.56-1.23l-1.28-.33,1.28-.31c.07-.46.24-.88.56-1.24l-.39-.67.65.4c.35-.28.74-.43,1.17-.52l.35-1.27.33,1.26c.46.08.85.25,1.2.55l.6-.41c-.08.27-.23.41-.38.62.32.37.5.79.59,1.27l1.2.3-1.2.35c-.08.46-.25.88-.56,1.21l.39.65-.6-.4c-.37.28-.77.5-1.25.57l-.32,1.26ZM27.22,15.79l.16-.87c-.34.06-.59.18-.83.39l.66.47ZM29.07,15.28c-.28-.22-.48-.32-.78-.38.02.31.07.56.17.85.25-.17.44-.27.61-.47ZM27.83,17.79c.2.01.38.2.52.29l-.13.79c.31-.04.57-.16.84-.38-.22-.42-.3-.87-.41-1.34l.77-.62c.09-.07.24-.05.39-.06-.07-.34-.21-.61-.41-.87l-.5.59c-.15.08-.4,0-.56,0l-.51-1.23-.5,1.23c-.15.02-.41.11-.55.02l-.49-.59c-.2.24-.36.52-.41.88.23-.04.38.02.53.15l.6.54c-.07.46-.21.89-.39,1.32.27.21.52.32.82.38l-.11-.78c.15-.09.33-.31.52-.3ZM26.77,17.45l-.9-.17c.05.33.19.6.41.87l.49-.7ZM29.4,18.14c.25-.3.35-.55.41-.87l-.89.19.49.68Z"/>
    <path class="cls-2" d="M27.86,17.47l-.75.44.16-.82-.65-.59.84-.05.36-.8.36.82.83.06c-.15.26-.5.33-.59.58l.13.82-.7-.44Z"/>
  </g>
</svg>