<?xml version="1.0" encoding="UTF-8"?>
<svg id="Layer_1" data-name="Layer 1" xmlns="http://www.w3.org/2000/svg" viewBox="0 0 1200 630">
  <defs>
    <style>
      .cls-1 {
        fill: #24c870;
      }

      .cls-2 {
        fill: #231f20;
      }

      .cls-3 {
        fill: #ffdf00;
      }

      .cls-4 {
        fill: #31cb79;
      }

      .cls-5 {
        fill: #2fcb78;
      }

      .cls-6 {
        fill: #405080;
      }
    </style>
  </defs>
  <rect class="cls-2" width="1200" height="630"/>
  <g>
    <path class="cls-3" d="M814.73,329.31l-.04,13.68,22.02.03c.77,0,1.13.71,1.14,1.35l.13,10.54c.02,1.36-.96,1.59-2.1,1.59h-35.54c-1.08,0-2.16-.21-2.16-1.63l.06-64.81h38.84s.05,13.39.05,13.39l-22.43.09.02,12.62,19.34.15.02,12.76-19.34.22Z"/>
    <path class="cls-3" d="M779.1,290.17l14.27-.17c.55,0,1.06.19,1.3.5.33.43.21.88.03,1.66l-14.45,64.28-18.74.07c-1.21,0-2.02-.62-2.26-1.88l-13.94-62.72c-.15-.67-.12-1.04.15-1.41.23-.31.75-.5,1.31-.49l14.91.18,8.28,46.55,3.33-17.33,3.02-16.63,1.88-10.74c.07-.42.31-1.81.89-1.87Z"/>
    <path class="cls-3" d="M721.18,290.07c.8,0,.89,1.37.76,1.94l-4.88,21.81-6.86,31.11-2.71,11.51-18.72.06c-1.53,0-1.97-.79-2.29-2.2l-13.89-62.6c-.12-.56.18-1.14.34-1.35s.61-.32,1.1-.32l13.84.02c.65,0,1.16.55,1.28,1.18l4.77,27.08,3.55,18.82,3.74-21.53,3.75-20.41c.32-1.74.29-3.41,1.18-5.08l15.03-.02Z"/>
    <rect class="cls-3" x="725.18" y="290.02" width="16.7" height="66.54"/>
    <path class="cls-3" d="M940.12,356.42l-15.27.05-2.47-5.09-13.2-31.76-.03,35.3c0,1.05-.8,1.6-1.72,1.6h-11.46c-.9,0-1.72-.52-1.72-1.64l-.02-63.21c.08-1.12.77-1.65,1.75-1.65l15.42.08,10.44,25.89,4.19,10.83c.39-1.7-.05-3.15-.06-4.74l-.06-20.66c-.27-3.78-.32-7.36.21-11.26l14.72-.04.04,64.76c0,.37-.19,1.56-.77,1.56Z"/>
    <g>
      <path class="cls-3" d="M961.61,333.6c-.04.8-.38,1.77-1.07,1.77l-11.4-.15c-1-15.08-1.78-29.7-1.78-45.03l15.91-.07c.53,3.17.24,6.09.08,9.28l-1.74,34.21Z"/>
      <rect class="cls-3" x="947.37" y="340.69" width="15.99" height="15.85"/>
    </g>
    <path class="cls-3" d="M888.57,291.16l-.17,47.86c-.03,7.72-4.05,14.44-11.31,17.02-9.03,3.22-22.01,2.67-28.95-3.93-3.95-3.76-5.3-8.86-5.31-14.37l-.11-46.09c0-.57.53-1.56,1.07-1.56l15.26.09.12,47.12c.01,4.11,2.62,6.92,6.6,6.94,3.52.02,6.32-2.48,6.33-6.32l.13-47.72,15.13-.19c.39,0,1.22.41,1.21,1.15Z"/>
    <g>
      <path class="cls-3" d="M655.89,356.41c-.74,0-1.19-1.52-1.35-2.03l-6.89-22.63-6.21-.17-.03,23.35c0,.79-.59,1.56-1.37,1.56h-13.81c-.71,0-1.19-.9-1.19-1.66v-63.11c0-.96.71-1.7,1.62-1.69l27.2.12c6.92.03,14.11,4.24,15.98,11.34,2.3,8.7,1.55,22.4-6.96,26.39l8.96,26.76c.14.41.1,1.81-.39,1.81l-15.57-.03ZM654.01,313.86c.45-3.19.52-6.09-.77-8.88-.68-1.21-2.04-2.11-3.51-2.14l-8.32-.21v16.4s6.83.05,6.83.05c3.18.02,5.32-2.01,5.77-5.2Z"/>
      <path class="cls-3" d="M619.47,290.1l.07,46.58c-.34,7.92-2.5,15.66-10.03,18.76-8.21,3.38-17.61,3.42-25.74-.13-4.98-2.18-8.12-6.56-9.19-11.69l-.8-8.77.02-44.64,16.28-.08.15,45.55c0,2.37.27,4.73,1.76,6.51,2.1,2.51,6.48,2.78,8.9.54,1.56-1.45,2.24-3.8,2.24-5.99l.16-46.66,16.19.02Z"/>
      <path class="cls-3" d="M568.32,331.09c2.13,9.12.24,20.09-8.6,24.1-8.25,3.74-17.97,3.66-26.43.33-8.57-3.38-11.58-11.97-10.11-20.99l15.71-1.16c.75,4.13-.58,8.72,3.7,11.17,2.38,1.36,5.83,1.22,7.98-.63,1.99-1.71,2.16-4.57,1.69-7.07-.43-2.29-2.24-4.36-4.78-5.41l-12.99-5.38c-3.81-1.58-7.28-4.21-9.15-8.03-3.05-6.22-2.85-13.75.17-19.96,4.71-9.7,21.39-11.36,32.08-7.41,6.46,2.39,10.04,8.12,10.25,14.87.06,1.8.51,3.45-.21,5.41l-14.21,1.27c-2.14.19-.77-3.4-1.83-7.33-.69-2.57-3.04-3.59-5.51-3.56-1.99.03-3.48.29-4.84,1.61-1.21,1.17-1.68,2.72-1.71,4.65-.04,2.61,1.04,4.92,3.49,5.95l7.44,3.12c7.24,3.03,15.79,5.63,17.85,14.49Z"/>
    </g>
  </g>
  <g>
    <path class="cls-1" d="M371.83,398.85c.39-1.08.74-2.2,1.04-3.38l-.18-31.84,1.11-.66,80.48-39.65.57,5.19-.03,28.66c0,1.65-.9,3.18-2.36,3.9l-25.68,12.6-8.59,4.31-42.63,21.13c-1.53.76-2.26.48-3.73-.25Z"/>
    <path class="cls-5" d="M373.79,362.97l.18,30.75c.02,2.23.28,4.33-2.14,5.13l-75.99-37.51c-1.83-.9-2.92-1.97-2.67-4.07l-.36-17.78.37-16.27,80.61,39.74Z"/>
    <g>
      <path class="cls-4" d="M372.01,352.77l-135.59-66.16,15.89-7.46,119.23-55.25c1.92.01,2.87.11,3.33,2.17l.08,124.07c.02,1.55-.97,2.43-2.95,2.64Z"/>
      <path class="cls-1" d="M489.66,297.16l-.54,1.05-103.65-14.82c-1.27,3.31-1.91,4.96-1.91,4.96l93.69,13.21.52,1.2-101.99,49.92c-1.78.87-2.35.79-3.78.09-.17-.2-.49-.47-.29-1.01.8.21,2.13-.37,2.13-1.25l-.08-124.83c-.04-.62-2.67-1.25-2.22-1.78,1.82-.85,2.3-1.05,4.52-.02l135.29,62.59-21.69,10.7Z"/>
      <path class="cls-6" d="M489.66,297.16l-.34,48.02-3.58-9.74-3.6,9.76-.22-42.11-4.15-.33-96.67-13.63c2.33-2.09,3.29-4.07,3.02-7.05l105.54,15.09Z"/>
    </g>
    <g>
      <path class="cls-3" d="M485.68,406.82l-2.72-11.22c-4.13-.83-7.93-2.48-11.22-5.28l-5.3,3.66,3.46-5.62c-2.85-3.13-4.38-6.83-5.05-11.01l-11.44-3,11.42-2.81c.64-4.11,2.14-7.89,4.97-11.1l-3.51-6,5.81,3.62c3.17-2.46,6.6-3.89,10.5-4.63l3.13-11.33,2.99,11.3c4.12.7,7.61,2.28,10.76,4.91l5.37-3.65c-.73,2.42-2.09,3.64-3.44,5.53,2.88,3.31,4.48,7.07,5.24,11.34l10.71,2.73-10.75,3.13c-.73,4.15-2.25,7.86-5.02,10.81l3.47,5.8-5.36-3.58c-3.34,2.54-6.86,4.45-11.19,5.14l-2.85,11.29ZM480.22,364.55l1.47-7.76c-3.01.5-5.24,1.59-7.39,3.52l5.92,4.25ZM496.77,360.06c-2.5-1.93-4.28-2.9-7.01-3.42.18,2.81.63,5.06,1.55,7.63,2.21-1.54,3.91-2.39,5.46-4.21ZM485.64,382.51c1.82.09,3.38,1.82,4.65,2.57l-1.16,7.06c2.76-.34,5.14-1.42,7.56-3.4-1.98-3.74-2.65-7.77-3.64-12.02l6.87-5.53c.82-.66,2.16-.45,3.48-.5-.64-3.01-1.88-5.49-3.71-7.83l-4.45,5.28c-1.35.72-3.56.02-5.02-.05l-4.57-11.05-4.51,11c-1.32.19-3.7.98-4.92.14l-4.39-5.28c-1.79,2.17-3.21,4.63-3.71,7.87,2.07-.36,3.39.14,4.72,1.35l5.36,4.84c-.66,4.08-1.88,7.93-3.51,11.78,2.38,1.86,4.68,2.91,7.32,3.42l-1.01-6.97c1.34-.79,2.94-2.75,4.65-2.66ZM476.13,379.44l-8.05-1.55c.46,2.97,1.66,5.34,3.67,7.82l4.38-6.27ZM499.69,385.66c2.2-2.7,3.13-4.94,3.66-7.77l-8,1.73,4.35,6.05Z"/>
      <path class="cls-3" d="M485.93,379.59l-6.7,3.9,1.44-7.36-5.78-5.3,7.56-.48,3.24-7.21,3.21,7.32,7.42.51c-1.37,2.36-4.5,3-5.27,5.24l1.14,7.36-6.25-3.98Z"/>
    </g>
  </g>
</svg>